<svg xmlns="http://www.w3.org/2000/svg" width="4215.093" height="4308.067" viewBox="0 0 4215.093 4308.067"><path d="M0 0h-883.11c-28.958 0-52.434-23.475-52.434-52.433s23.476-52.433 52.434-52.433H0c28.958 0 52.433 23.475 52.433 52.433S28.958 0 0 0" style="fill:#000;fill-opacity:1;fill-rule:nonzero;stroke:none" transform="matrix(1.33333 0 0 -1.33333 2109.832 544.561)"/><path d="M0 0h-883.11c-28.958 0-52.434-23.475-52.434-52.433s23.476-52.433 52.434-52.433H0c28.958 0 52.433 23.475 52.433 52.433S28.958 0 0 0" style="fill:#000;fill-opacity:1;fill-rule:nonzero;stroke:none" transform="matrix(1.33333 0 0 -1.33333 2109.832 924.718)"/><path d="M0 0c43.867 17.969 88.719 32.473 134.349 43.507-2.936 26.175-25.133 46.525-52.092 46.525h-883.111c-28.958 0-52.433-23.475-52.433-52.433s23.475-52.433 52.433-52.433H-34.23A938 938 0 0 0 0 0" style="fill:#000;fill-opacity:1;fill-rule:nonzero;stroke:none" transform="matrix(1.33333 0 0 -1.33333 2000.157 1424.917)"/><path d="M0 0c-262.106-263.958-690.091-265.465-954.049-3.359s-265.464 690.091-3.357 954.049c262.105 263.957 690.089 265.464 954.047 3.358S262.105 263.957 0 0m783.284-561.8L449.936-230.79 200.906 16.493c32.374 47.833 59.543 98.982 81.253 153.067 39.49 98.375 59.324 202.227 58.949 308.67s-20.939 210.153-61.121 308.248C238.372 888.076 177.461 979.119 98.95 1057.08s-169.981 138.228-271.869 179.127c-98.376 39.491-202.228 59.324-308.671 58.949-106.443-.374-210.153-20.939-308.248-61.12-101.597-41.617-192.641-102.526-270.601-181.037-77.96-78.51-138.227-169.981-179.128-271.869-39.49-98.377-59.324-202.227-58.949-308.671s20.938-210.153 61.12-308.249c41.617-101.597 102.527-192.641 181.038-270.601s169.981-138.227 271.869-179.128c98.376-39.49 202.228-59.323 308.671-58.949 106.443.376 210.153 20.939 308.248 61.122 53.93 22.09 104.885 49.617 152.489 82.327l249.03-247.283 333.349-331.01c60.064-59.643 157.107-59.301 216.749.763 59.643 60.064 59.301 157.107-.763 216.749" style="fill:#000;fill-opacity:1;fill-rule:nonzero;stroke:none" transform="matrix(1.33333 0 0 -1.33333 3110.352 3209.638)"/><path d="M0 0h-304.086c-28.958 0-52.433-23.475-52.433-52.433s23.475-52.433 52.433-52.433h264.295a938 938 0 0 0 24.834 69.729A939 939 0 0 0 0 0" style="fill:#000;fill-opacity:1;fill-rule:nonzero;stroke:none" transform="matrix(1.33333 0 0 -1.33333 1337.8 2065.188)"/><path d="M0 0a964 964 0 0 0 11.003 10.882h-503.929c-28.958 0-52.433-23.475-52.433-52.433s23.475-52.433 52.433-52.433h411.152C-56.785-61.091-29.513-29.721 0 0" style="fill:#000;fill-opacity:1;fill-rule:nonzero;stroke:none" transform="matrix(1.33333 0 0 -1.33333 1589.586 1699.54)"/><path d="M0 0c-28.958 0-52.433-23.475-52.433-52.433S-28.958-104.866 0-104.866h222.087c-.009 1.236-.031 2.469-.035 3.705A943 943 0 0 0 227.114 0z" style="fill:#000;fill-opacity:1;fill-rule:nonzero;stroke:none" transform="matrix(1.33333 0 0 -1.33333 932.352 2445.344)"/><path d="M0 0h268.775a927 927 0 0 0-27.894 104.866H0c-28.958 0-52.433-23.475-52.433-52.433S-28.958 0 0 0" style="fill:#000;fill-opacity:1;fill-rule:nonzero;stroke:none" transform="matrix(1.33333 0 0 -1.33333 932.352 2965.322)"/><path d="M0 0h-1203.019v2254.95h149.975V243.058c0-40.096 32.505-72.6 72.6-72.6h783.607c-39.541 45.168-74.383 93.67-104.29 145.199h-606.717v2254.949H497.453v-275.114c0-122.954 99.674-222.627 222.628-222.627h239.903v-473.95c51.398-28.638 99.897-62.115 145.2-100.213v677.635a72.6 72.6 0 0 1-21.265 51.336L617.05 2694.542a72.6 72.6 0 0 1-51.335 21.263H-980.444c-40.095 0-72.6-32.504-72.6-72.599v-243.057h-222.575c-40.095 0-72.599-32.504-72.599-72.6V-72.6c0-40.095 32.504-72.599 72.599-72.599H423.072c-90.995 8.001-179.851 29.236-265.087 63.45C102.491-59.471 49.729-32.143 0 0" style="fill:#000;fill-opacity:1;fill-rule:nonzero;stroke:none" transform="matrix(1.33333 0 0 -1.33333 1797.624 3621.072)"/><path d="M0 0c-77.244 0-152.209-15.141-222.809-45.003-68.165-28.831-129.37-70.093-181.917-122.64s-93.81-113.753-122.64-181.918c-29.862-70.601-45.003-145.564-45.003-222.809 0-35.845 3.343-71.74 9.935-106.688 5.114-27.11 28.809-46.009 55.424-46.009 3.471 0 6.996.322 10.531.989 30.646 5.781 50.802 35.31 45.021 65.956-5.294 28.062-7.978 56.913-7.978 85.752 0 253.335 206.102 459.437 459.436 459.437 31.186 0 56.466 25.281 56.466 56.467C56.466-25.281 31.186 0 0 0" style="fill:#000;fill-opacity:1;fill-rule:nonzero;stroke:none" transform="matrix(1.33333 0 0 -1.33333 2489.288 1832.045)"/></svg>