<svg xmlns="http://www.w3.org/2000/svg" width="109.333" height="109.333" viewBox="0 0 109.333 109.333"><defs><clipPath id="a" clipPathUnits="userSpaceOnUse"><path d="M0 82h82V0H0Z"/></clipPath></defs><path d="M0 0a6.97 6.97 0 1 0-13.136 4.663A6.97 6.97 0 0 0 0 0m6.835 3.913-1.498.22a1.32 1.32 0 0 0-1.078.983q-.098.382-.223.754a1.32 1.32 0 0 0 .372 1.411l1.137.999c.305.275.286.825-.027 1.238q-.55.726-1.029 1.501c-.273.44-.779.655-1.145.469l-1.34-.7a1.32 1.32 0 0 0-1.452.162q-.302.25-.623.481c-.432.308-.645.84-.528 1.358l.332 1.474c.085.402-.254.836-.75.986a19 19 0 0 0-1.715.609c-.479.195-1.015.071-1.202-.293l-.672-1.354a1.31 1.31 0 0 0-1.266-.721q-.394.023-.787.02a1.32 1.32 0 0 0-1.229.789l-.598 1.388c-.167.375-.697.528-1.186.357q-.86-.299-1.745-.515c-.503-.123-.864-.538-.801-.944l.253-1.493a1.315 1.315 0 0 0-.601-1.328 11 11 0 0 1-.648-.446 1.32 1.32 0 0 0-1.456-.083l-1.303.773c-.355.205-.873.017-1.169-.408-.347-.5-.716-.978-1.109-1.443-.334-.395-.382-.943-.093-1.234l1.078-1.055c.373-.364.503-.919.31-1.403a11 11 0 0 1-.284-.8 1.3 1.3 0 0 0-1.125-.894l-1.502-.139c-.408-.044-.717-.499-.706-1.018a19 19 0 0 0-.049-1.819c-.038-.516.245-.987.65-1.053l1.498-.221a1.32 1.32 0 0 0 1.079-.982q.097-.382.222-.754a1.32 1.32 0 0 0-.371-1.41l-1.138-1c-.304-.275-.286-.825.027-1.238q.55-.726 1.03-1.501c.273-.44.779-.655 1.145-.469l1.34.7a1.31 1.31 0 0 0 1.451-.162q.302-.25.624-.481c.432-.309.644-.84.527-1.358l-.331-1.474c-.085-.402.253-.836.75-.986a19 19 0 0 0 1.714-.609c.479-.195 1.015-.072 1.202.293l.672 1.354c.236.476.736.754 1.266.721q.395-.024.787-.02c.532.005 1.018-.3 1.229-.789l.599-1.388c.167-.375.696-.528 1.186-.358q.86.3 1.745.516c.502.123.863.538.8.944l-.252 1.492A1.31 1.31 0 0 0-.57-7.109q.33.211.648.446c.427.315.999.353 1.456.082l1.302-.773c.356-.204.874-.017 1.169.409q.52.747 1.109 1.442c.334.396.382.943.093 1.235L4.13-3.214c-.373.365-.504.92-.31 1.404a11 11 0 0 1 .284.799c.154.498.606.846 1.125.894l1.501.14c.409.043.717.5.706 1.018a19 19 0 0 0 .05 1.819c.037.516-.246.987-.651 1.053" style="fill:#000;fill-opacity:1;fill-rule:nonzero;stroke:none" transform="matrix(1.33333 0 0 -1.33333 90.758 30.436)"/><path d="m0 0-.001-2.929h-9.074v16.472l-3.871-.076.076-20.267H-.001L0-9.73l7.25 4.866Z" style="fill:#000;fill-opacity:1;fill-rule:nonzero;stroke:none" transform="matrix(1.33333 0 0 -1.33333 35.236 80.043)"/><path d="M0 0c.949 0 1.721.772 1.721 1.721v2.744c0 .949-.772 1.721-1.721 1.721a1.723 1.723 0 0 1-1.721-1.721V1.721C-1.721.772-.949 0 0 0" style="fill:#000;fill-opacity:1;fill-rule:nonzero;stroke:none" transform="matrix(1.33333 0 0 -1.33333 10.032 15.23)"/><path d="M0 0a1.723 1.723 0 0 1-1.721-1.721v-2.744c0-.949.772-1.721 1.721-1.721s1.721.772 1.721 1.721v2.744C1.721-.772.949 0 0 0" style="fill:#000;fill-opacity:1;fill-rule:nonzero;stroke:none" transform="matrix(1.33333 0 0 -1.33333 35.982 39.436)"/><path d="M0 0a1.723 1.723 0 0 1-1.721-1.721v-2.744c0-.949.772-1.721 1.721-1.721s1.721.772 1.721 1.721v2.744C1.721-.772.949 0 0 0" style="fill:#000;fill-opacity:1;fill-rule:nonzero;stroke:none" transform="matrix(1.33333 0 0 -1.33333 25.237 39.436)"/><path d="M0 0a1.723 1.723 0 0 1-1.721-1.721v-2.744c0-.949.772-1.721 1.721-1.721s1.721.772 1.721 1.721v2.744C1.721-.772.949 0 0 0" style="fill:#000;fill-opacity:1;fill-rule:nonzero;stroke:none" transform="matrix(1.33333 0 0 -1.33333 10.032 39.436)"/><path d="M0 0a1.723 1.723 0 0 1-1.721-1.721v-2.744c0-.949.772-1.721 1.721-1.721s1.721.772 1.721 1.721v2.744C1.721-.772.949 0 0 0" style="fill:#000;fill-opacity:1;fill-rule:nonzero;stroke:none" transform="matrix(1.33333 0 0 -1.33333 25.297 23.21)"/><path d="M0 0c.949 0 1.721.772 1.721 1.721v2.744c0 .949-.772 1.721-1.721 1.721a1.723 1.723 0 0 1-1.721-1.721V1.721C-1.721.772-.949 0 0 0" style="fill:#000;fill-opacity:1;fill-rule:nonzero;stroke:none" transform="matrix(1.33333 0 0 -1.33333 25.237 15.23)"/><path d="M0 0a1.723 1.723 0 0 1-1.721-1.721v-2.744c0-.949.772-1.721 1.721-1.721s1.721.772 1.721 1.721v2.744C1.721-.772.949 0 0 0" style="fill:#000;fill-opacity:1;fill-rule:nonzero;stroke:none" transform="matrix(1.33333 0 0 -1.33333 14.245 23.21)"/><path d="M0 0c.949 0 1.721.772 1.721 1.721v2.744c0 .949-.772 1.721-1.721 1.721a1.723 1.723 0 0 1-1.721-1.721V1.721C-1.721.772-.949 0 0 0" style="fill:#000;fill-opacity:1;fill-rule:nonzero;stroke:none" transform="matrix(1.33333 0 0 -1.33333 35.982 15.23)"/><path d="M0 0a1.723 1.723 0 0 1-1.721-1.721v-2.744c0-.949.772-1.721 1.721-1.721s1.721.772 1.721 1.721v2.744C1.721-.772.949 0 0 0" style="fill:#000;fill-opacity:1;fill-rule:nonzero;stroke:none" transform="matrix(1.33333 0 0 -1.33333 40.929 23.21)"/><path d="M36.884 68.89h-1.687v9.56h1.687zm0-12.17h-1.687v9.56h1.687zm0-12.169h-1.687v9.559h1.687zm-2.779 15.577a3.41 3.41 0 0 0-3.409-3.408 3.41 3.41 0 0 0-3.408 3.408v2.744a3.41 3.41 0 0 0 3.408 3.408 3.41 3.41 0 0 0 3.409-3.408zm-.687-15.577h-1.687v9.559h1.687zm-3.023 3.407a3.41 3.41 0 0 0-3.408-3.407 3.41 3.41 0 0 0-3.408 3.407v2.744a3.41 3.41 0 0 0 3.408 3.408 3.41 3.41 0 0 0 3.408-3.408zm-8.014 12.17a3.41 3.41 0 0 0-3.408-3.408 3.41 3.41 0 0 0-3.409 3.408v2.744a3.41 3.41 0 0 0 3.409 3.408 3.41 3.41 0 0 0 3.408-3.408zm-.046-12.17a3.41 3.41 0 0 0-3.408-3.407 3.41 3.41 0 0 0-3.408 3.407v2.744a3.41 3.41 0 0 0 3.408 3.408 3.41 3.41 0 0 0 3.408-3.408zm-8.243 12.17a3.41 3.41 0 0 0-3.408-3.408 3.41 3.41 0 0 0-3.409 3.408v2.744a3.41 3.41 0 0 0 3.409 3.408 3.41 3.41 0 0 0 3.408-3.408zM14 44.551h-1.687v9.559H14Zm-3.068 3.407a3.41 3.41 0 0 0-3.408-3.407 3.41 3.41 0 0 0-3.408 3.407v2.744a3.41 3.41 0 0 0 3.408 3.408 3.41 3.41 0 0 0 3.408-3.408zM4.116 66.28h1.687v-9.56H4.116Zm0 8.762a3.41 3.41 0 0 0 3.408 3.408 3.41 3.41 0 0 0 3.408-3.408v-2.744a3.41 3.41 0 0 0-3.408-3.408 3.41 3.41 0 0 0-3.408 3.408zm8.198 3.408h1.687v-9.559h-1.687zm3.205-3.408a3.41 3.41 0 0 0 3.408 3.408 3.41 3.41 0 0 0 3.408-3.408v-2.744a3.41 3.41 0 0 0-3.408-3.408 3.41 3.41 0 0 0-3.408 3.408zM25.724 56.72h-1.687v9.56h1.687zm-2.145 18.322a3.41 3.41 0 0 0 3.408 3.408 3.41 3.41 0 0 0 3.408-3.408v-2.744a3.41 3.41 0 0 0-3.408-3.408 3.41 3.41 0 0 0-3.408 3.408zm8.152 3.408h1.687v-9.559h-1.687ZM0 41h41v41H0Z" clip-path="url(#a)" style="fill:#000;fill-opacity:1;fill-rule:nonzero;stroke:none" transform="matrix(1.33333 0 0 -1.33333 0 109.333)"/><path d="M0 0h-4.109v-2.426H0a5.63 5.63 0 0 0 5.625-5.623v-4.111h2.426v4.111C8.051-3.611 4.439 0 0 0" style="fill:#000;fill-opacity:1;fill-rule:nonzero;stroke:none" transform="matrix(1.33333 0 0 -1.33333 98.598 0)"/><path d="M0 0v4.109h-2.426V0c0-4.439 3.611-8.049 8.05-8.049h4.111v2.425H5.624A5.63 5.63 0 0 0 0 0" style="fill:#000;fill-opacity:1;fill-rule:nonzero;stroke:none" transform="matrix(1.33333 0 0 -1.33333 3.235 98.6)"/><path d="M0 0h-2.941v-7.391h-1.642V0h-2.939v1.643H0Zm0-12.17h-2.941v-7.391h-1.642v7.391h-2.939v1.643H0Zm0-12.17h-2.941v-7.391h-1.642v7.391h-2.939v1.643H0ZM-10.325-7.391l-2.082 3.058-2.083-3.058h-1.987l3.076 4.517-3.076 4.517h1.988l2.082-3.058 2.081 3.058h1.988l-3.076-4.517 3.077-4.517zm0-12.17-2.082 3.058-2.083-3.058h-1.987l3.076 4.517-3.076 4.517h1.988l2.082-3.057 2.081 3.057h1.988l-3.076-4.517 3.077-4.517zm0-12.17-2.082 3.058-2.083-3.058h-1.987l3.076 4.517-3.076 4.517h1.988l2.082-3.057 2.081 3.057h1.988l-3.076-4.517 3.077-4.517zM-17.292 0h-4.305v-2.053h4.305v-1.643h-4.305v-2.053h4.305v-1.642h-5.948v9.034h5.948zm0-12.17h-4.305v-2.053h4.305v-1.642h-4.305v-2.054h4.305v-1.642h-5.948v9.034h5.948zm0-12.17h-4.305v-2.053h4.305v-1.642h-4.305v-2.054h4.305v-1.642h-5.948v9.034h5.948zM-24.386 0h-2.94v-7.391h-1.643V0h-2.939v1.643h7.522zm0-12.17h-2.94v-7.391h-1.643v7.391h-2.939v1.643h7.522zm0-12.17h-2.94v-7.391h-1.643v7.391h-2.939v1.643h7.522zm-12.068-11.204h41v41h-41z" style="fill:#000;fill-opacity:1;fill-rule:nonzero;stroke:none" transform="matrix(1.33333 0 0 -1.33333 103.272 61.94)"/></svg>