<svg xmlns="http://www.w3.org/2000/svg" width="1525.227" height="1786.667" viewBox="0 0 1525.227 1786.667"><defs><clipPath id="a" clipPathUnits="userSpaceOnUse"><path d="M-1111.135 790.734H32.782v-1340h-1143.918Z"/></clipPath></defs><path d="m0 0-184.262-184.264-65.362 65.36c-6.402 6.403-16.779 6.403-23.182 0-6.401-6.401-6.401-16.78 0-23.181l76.953-76.951a16.34 16.34 0 0 1 11.591-4.8c4.196 0 8.39 1.599 11.591 4.8L23.183-23.18c6.4 6.4 6.4 16.779 0 23.18C16.78 6.401 6.403 6.401 0 0" style="fill:#fff;fill-opacity:1;fill-rule:nonzero;stroke:#fff;stroke-width:25;stroke-linejoin:round" transform="matrix(1.33333 0 0 -1.33333 926.832 608.117)"/><path d="M0 0c-123.754 0-224.436 100.682-224.436 224.436S-123.754 448.872 0 448.872c123.756 0 224.438-100.682 224.438-224.436S123.756 0 0 0m0 481.655c-141.831 0-257.219-115.388-257.219-257.219S-141.831-32.783 0-32.783c141.833 0 257.221 115.389 257.221 257.219 0 141.831-115.388 257.219-257.221 257.219" style="fill:#fff;fill-opacity:1;fill-rule:nonzero;stroke:#fff;stroke-width:25;stroke-linejoin:round" transform="matrix(1.33333 0 0 -1.33333 762.61 1050.86)"/><path d="M0 0c-7.768-13.01-15.799-26.46-20.483-40.885-4.895-15.076-6.419-31.12-7.892-46.633-1.975-20.799-3.842-40.446-13.458-53.658-9.759-13.41-27.955-21.256-47.222-29.564-14.238-6.139-28.961-12.487-41.639-21.716-12.495-9.092-22.95-21.037-33.059-32.59-13.9-15.884-27.028-30.884-43.091-36.101-15.125-4.914-34.194-.664-54.381 3.836-15.437 3.441-31.4 7.001-47.638 7.001-16.237 0-32.2-3.56-47.639-7.001-20.181-4.5-39.248-8.75-54.375-3.836-16.065 5.215-29.193 20.217-43.094 36.101-10.11 11.553-20.563 23.498-33.059 32.59-12.677 9.229-27.4 15.577-41.639 21.716-19.266 8.308-37.463 16.154-47.221 29.564-9.616 13.212-11.483 32.859-13.458 53.658-1.473 15.513-2.997 31.554-7.892 46.631-4.684 14.425-12.716 27.877-20.483 40.885-10.891 18.238-21.176 35.464-21.176 52.824s10.285 34.586 21.174 52.822c7.767 13.008 15.799 26.46 20.483 40.885 4.895 15.076 6.419 31.118 7.892 46.631 1.977 20.801 3.844 40.448 13.46 53.66 9.758 13.41 27.955 21.256 47.221 29.564 14.239 6.138 28.962 12.487 41.639 21.716 12.496 9.092 22.951 21.037 33.061 32.59 13.899 15.884 27.027 30.886 43.09 36.101 4.796 1.557 9.987 2.195 15.483 2.195 11.845 0 25.11-2.958 38.896-6.031 15.437-3.442 31.4-7.001 47.637-7.001s32.201 3.559 47.64 7.001c20.185 4.5 39.252 8.748 54.377 3.836 16.063-5.215 29.191-20.217 43.089-36.099 10.111-11.553 20.566-23.5 33.063-32.592 12.678-9.229 27.401-15.578 41.639-21.716 19.267-8.308 37.463-16.154 47.222-29.564 9.616-13.212 11.483-32.859 13.458-53.658 1.473-15.513 2.997-31.555 7.892-46.631C-15.799 132.106-7.768 118.654 0 105.646c10.891-18.238 21.176-35.464 21.176-52.824S10.891 18.236 0 0m-135.37-368.784a16.39 16.39 0 0 1-16.595-8.744l-39.528-76.525-88.076 167.188a865 865 0 0 0 11.213-2.443c23.591-5.26 47.99-10.699 71.636-3.019 24.658 8.006 41.423 27.164 57.637 45.691 4.1 4.686 8.099 9.236 12.104 13.476l77.074-146.303zm-290.86-85.269-39.528 76.525a16.39 16.39 0 0 1-16.595 8.744l-85.467-10.679 77.075 146.303c4.005-4.24 8.004-8.79 12.103-13.476 16.216-18.527 32.981-37.685 57.64-45.693 8.454-2.745 17-3.814 25.574-3.814 15.409.002 30.902 3.454 46.059 6.835 3.796.845 7.532 1.675 11.214 2.443zM10.699 156.655c-3.782 11.643-5.073 25.228-6.439 39.606-2.305 24.279-4.69 49.383-19.585 69.85-15.043 20.667-38.277 30.688-60.75 40.376-13.168 5.677-25.603 11.041-35.33 18.119-9.53 6.935-18.346 17.009-27.68 27.676-16.214 18.527-32.979 37.683-57.637 45.691-23.65 7.678-48.045 2.239-71.634-3.021-14.337-3.196-27.879-6.215-40.507-6.215s-26.169 3.019-40.506 6.215c-23.591 5.26-47.986 10.696-71.635 3.019-24.657-8.006-41.422-27.164-57.636-45.691-9.334-10.665-18.148-20.739-27.678-27.676-9.725-7.076-22.162-12.438-35.33-18.117-22.473-9.688-45.709-19.709-60.75-40.376-14.895-20.467-17.28-45.573-19.587-69.85-1.367-14.38-2.657-27.964-6.439-39.608-3.542-10.913-10.297-22.226-17.448-34.203-12.097-20.262-25.81-43.226-25.81-69.628s13.713-49.369 25.81-69.63c7.153-11.977 13.908-23.29 17.45-34.203 3.782-11.644 5.073-25.228 6.437-39.606 2.307-24.279 4.692-49.383 19.587-69.85 15.041-20.667 38.277-30.686 60.748-40.376 8.79-3.79 17.233-7.452 24.783-11.566l-94.603-179.573a16.39 16.39 0 0 1 1.022-16.964 16.38 16.38 0 0 1 15.513-6.943l105.298 13.158 48.7-94.283a16.39 16.39 0 0 1 14.497-8.87h.066a16.39 16.39 0 0 1 14.503 8.752l103.009 195.535 103.01-195.535a16.39 16.39 0 0 1 14.503-8.752h.066a16.39 16.39 0 0 1 14.497 8.87l48.7 94.283 105.296-13.158a16.392 16.392 0 0 1 16.535 23.907l-94.602 179.575c7.549 4.112 15.992 7.774 24.782 11.564 22.473 9.688 45.707 19.709 60.75 40.376C-.43-140 1.955-114.894 4.26-90.617c1.366 14.38 2.657 27.964 6.439 39.608 3.541 10.911 10.296 22.224 17.448 34.201C40.246 3.453 53.958 26.42 53.958 52.822c0 26.404-13.712 49.368-25.811 69.63-7.152 11.977-13.907 23.29-17.448 34.203" style="fill:#fff;fill-opacity:1;fill-rule:nonzero;stroke:#fff;stroke-width:25;stroke-linejoin:round" transform="matrix(1.33333 0 0 -1.33333 1174.428 822.041)"/><path d="M0 0c-.606-6.897-9.36-91.918-76.731-194.863-64.297-98.246-196.657-233.348-462.446-320.767-265.787 87.419-398.147 222.521-462.444 320.767-67.449 103.061-76.145 188.16-76.731 194.857v537.943c1.174-.012 2.337-.018 3.515-.018 206.634.006 480.579 179.031 535.66 216.512 55.085-37.483 329.024-216.532 535.661-216.512 1.179 0 2.342.006 3.516.018zm27.615 566.866a16.43 16.43 0 0 1-12.246 4.412c-215.768-13.48-541.84 214.167-545.11 216.468a16.39 16.39 0 0 1-18.872 0c-3.27-2.301-329.37-229.958-545.108-216.468a16.42 16.42 0 0 1-12.246-4.412 16.4 16.4 0 0 1-5.168-11.948V-.65q0-.532.034-1.063c.25-3.844 6.963-95.451 80.808-209.197 67.467-103.921 206.558-246.842 486.056-337.555a16.4 16.4 0 0 1 10.12 0C-254.62-457.752-115.526-314.831-48.06-210.91 25.786-97.164 32.499-5.557 32.749-1.713q.034.532.034 1.063v555.568a16.4 16.4 0 0 1-5.168 11.948" clip-path="url(#a)" style="fill:#fff;fill-opacity:1;fill-rule:nonzero;stroke:#fff;stroke-width:25;stroke-linejoin:round" transform="matrix(1.33333 0 0 -1.33333 1481.514 1054.312)"/></svg>