<svg fill="#fff" xmlns="http://www.w3.org/2000/svg" viewBox="0 0 691.6 1366.2"><path d="M9.9 184.9h5.3v56.6H9.9c-5.4 0-9.9-4.4-9.9-9.9v-36.9c0-5.4 4.4-9.9 9.9-9.9ZM9.9 278.8h5.3V386H9.9c-5.4 0-9.9-4.4-9.9-9.9v-87.5c0-5.4 4.4-9.9 9.9-9.9ZM9.9 409h5.3v107.2H9.9c-5.4 0-9.9-4.4-9.9-9.9v-87.5c0-5.4 4.4-9.9 9.9-9.9ZM676.4 319.6h5.3c5.4 0 9.9 4.4 9.9 9.9V469c0 5.4-4.4 9.9-9.9 9.9h-5.3V319.7Z"/><path d="M573.7 0H115.3C53.9 0 4.1 49.8 4.1 111.3V1255c0 61.5 49.8 111.3 111.3 111.3h458.4c61.5 0 111.3-49.8 111.3-111.3V111.3C685.1 49.8 635.3 0 573.8 0Zm68.9 1261.3c0 32.8-26.6 59.4-59.4 59.4H107.9c-32.8 0-59.4-26.6-59.4-59.4v-1158c0-32.8 26.6-59.4 59.4-59.4h66.4V53c0 21.5 17.4 38.9 38.9 38.9h263.6c21.5 0 38.9-17.4 38.9-38.9v-9.1h67.6c32.8 0 59.4 26.6 59.4 59.4v1158Z"/></svg>