<svg xmlns="http://www.w3.org/2000/svg" width="782.437" height="1066.667" viewBox="0 0 782.437 1066.667"><path d="M0 0a425 425 0 0 0 44.715 10.804c30.478 5.634 61.141 7.889 91.524 6.868" style="fill:none;stroke:#fff;stroke-width:30;stroke-linecap:round;stroke-linejoin:round;stroke-miterlimit:10;stroke-dasharray:none;stroke-opacity:1" transform="matrix(1.33333 0 0 -1.33333 261.534 43.88)"/><path d="M0 0a364 364 0 0 0 30.568 7.034 366 366 0 0 0 38.946 5.036" style="fill:none;stroke:#fff;stroke-width:30;stroke-linecap:round;stroke-linejoin:round;stroke-miterlimit:10;stroke-dasharray:none;stroke-opacity:1" transform="matrix(1.33333 0 0 -1.33333 295.072 118.272)"/><path d="M0 0c-40.771 20.988-85.657 34.401-132.489 38.74" style="fill:none;stroke:#fff;stroke-width:30;stroke-linecap:round;stroke-linejoin:round;stroke-miterlimit:10;stroke-dasharray:none;stroke-opacity:1" transform="matrix(1.33333 0 0 -1.33333 645.074 154.503)"/><path d="M0 0c-44.207-20.567-82.666-49.086-114.16-83.274" style="fill:none;stroke:#fff;stroke-width:30;stroke-linecap:round;stroke-linejoin:round;stroke-miterlimit:10;stroke-dasharray:none;stroke-opacity:1" transform="matrix(1.33333 0 0 -1.33333 219.36 146.11)"/><path d="M0 0a305.2 305.2 0 0 1-61.593 34.299" style="fill:none;stroke:#fff;stroke-width:30;stroke-linecap:round;stroke-linejoin:round;stroke-miterlimit:10;stroke-dasharray:none;stroke-opacity:1" transform="matrix(1.33333 0 0 -1.33333 659.727 257.86)"/><path d="M0 0a304 304 0 0 1-9.958 11.278" style="fill:none;stroke:#fff;stroke-width:30;stroke-linecap:round;stroke-linejoin:round;stroke-miterlimit:10;stroke-dasharray:none;stroke-opacity:1" transform="matrix(1.33333 0 0 -1.33333 733.433 326.237)"/><path d="M0 0c-36.118 7.014-74.107 7.518-112.419.436a303.3 303.3 0 0 1-70.276-22.081c-49.097-22.303-89.808-56.342-119.817-97.629" style="fill:none;stroke:#fff;stroke-width:30;stroke-linecap:round;stroke-linejoin:round;stroke-miterlimit:10;stroke-dasharray:none;stroke-opacity:1" transform="matrix(1.33333 0 0 -1.33333 500.397 188.895)"/><path d="M0 0a720 720 0 0 1 3.027-8.58" style="fill:none;stroke:#fff;stroke-width:30;stroke-linecap:round;stroke-linejoin:round;stroke-miterlimit:10;stroke-dasharray:none;stroke-opacity:1" transform="matrix(1.33333 0 0 -1.33333 63.243 797.37)"/><path d="M0 0c-25.147-55.077-33.867-117.894-22.211-180.947a724 724 0 0 1 10.04-45.896" style="fill:none;stroke:#fff;stroke-width:30;stroke-linecap:round;stroke-linejoin:round;stroke-miterlimit:10;stroke-dasharray:none;stroke-opacity:1" transform="matrix(1.33333 0 0 -1.33333 56.411 417.548)"/><path d="M0 0c-68.525-40.589-111.953-111.769-117.864-189.705" style="fill:none;stroke:#fff;stroke-width:30;stroke-linecap:round;stroke-linejoin:round;stroke-miterlimit:10;stroke-dasharray:none;stroke-opacity:1" transform="matrix(1.33333 0 0 -1.33333 258.862 307.63)"/><path d="M0 0c.115-.597.243-1.187.354-1.786 3.2-17.311 8.601-33.288 15.664-46.855" style="fill:none;stroke:#fff;stroke-width:30;stroke-linecap:round;stroke-linejoin:round;stroke-miterlimit:10;stroke-dasharray:none;stroke-opacity:1" transform="matrix(1.33333 0 0 -1.33333 741.08 524.297)"/><path d="M0 0c.136-.776.262-1.553.405-2.329a663 663 0 0 1 15.851-66.408" style="fill:none;stroke:#fff;stroke-width:30;stroke-linecap:round;stroke-linejoin:round;stroke-miterlimit:10;stroke-dasharray:none;stroke-opacity:1" transform="matrix(1.33333 0 0 -1.33333 105.673 641.023)"/><path d="M0 0c-45.768 97.113-152.824 155.407-263.23 134.998a243 243 0 0 1-24.339-5.836" style="fill:none;stroke:#fff;stroke-width:30;stroke-linecap:round;stroke-linejoin:round;stroke-miterlimit:10;stroke-dasharray:none;stroke-opacity:1" transform="matrix(1.33333 0 0 -1.33333 716.15 447.73)"/><path d="M0 0c-41.21 49.191-74.788 105.892-99.312 167.516" style="fill:none;stroke:#fff;stroke-width:30;stroke-linecap:round;stroke-linejoin:round;stroke-miterlimit:10;stroke-dasharray:none;stroke-opacity:1" transform="matrix(1.33333 0 0 -1.33333 286.078 1032.33)"/><path d="M0 0c-82.141 74.435-140.487 178.231-165.724 294.336" style="fill:none;stroke:#fff;stroke-width:30;stroke-linecap:round;stroke-linejoin:round;stroke-miterlimit:10;stroke-dasharray:none;stroke-opacity:1" transform="matrix(1.33333 0 0 -1.33333 411.614 1046.667)"/><path d="M0 0c-34.536 17.802-74.987 24.741-116.061 17.148a182 182 0 0 1-42.181-13.25c-21.336-9.692-40.033-23.079-55.562-39.137" style="fill:none;stroke:#fff;stroke-width:30;stroke-linecap:round;stroke-linejoin:round;stroke-miterlimit:10;stroke-dasharray:none;stroke-opacity:1" transform="matrix(1.33333 0 0 -1.33333 534.598 370.014)"/><path d="M0 0a181.2 181.2 0 0 0 16.682 68.201" style="fill:none;stroke:#fff;stroke-width:30;stroke-linecap:round;stroke-linejoin:round;stroke-miterlimit:10;stroke-dasharray:none;stroke-opacity:1" transform="matrix(1.33333 0 0 -1.33333 181.802 574.199)"/><path d="M0 0c23.682-24.712 40.669-56.348 47.343-92.447 8.52-46.083 28.732-85.289 56.915-110.397a117 117 0 0 1 5.82-4.861" style="fill:none;stroke:#fff;stroke-width:30;stroke-linecap:round;stroke-linejoin:round;stroke-miterlimit:10;stroke-dasharray:none;stroke-opacity:1" transform="matrix(1.33333 0 0 -1.33333 599.01 418.097)"/><path d="M0 0c-24.662-27.308-36.181-65.149-29.145-103.214 9.37-50.687 25.687-98.912 47.977-142.993" style="fill:none;stroke:#fff;stroke-width:30;stroke-linecap:round;stroke-linejoin:round;stroke-miterlimit:10;stroke-dasharray:none;stroke-opacity:1" transform="matrix(1.33333 0 0 -1.33333 303.908 477.15)"/><path d="M0 0a417 417 0 0 0-30.423 24.66c-28.157 25.085-53.216 54.126-74.746 86.227" style="fill:none;stroke:#fff;stroke-width:30;stroke-linecap:round;stroke-linejoin:round;stroke-miterlimit:10;stroke-dasharray:none;stroke-opacity:1" transform="matrix(1.33333 0 0 -1.33333 509.969 1022.95)"/><path d="M0 0c13.095-49.637 37.89-92.375 71.115-121.974 8.958-7.981 18.152-14.599 27.418-19.813" style="fill:none;stroke:#fff;stroke-width:30;stroke-linecap:round;stroke-linejoin:round;stroke-miterlimit:10;stroke-dasharray:none;stroke-opacity:1" transform="matrix(1.33333 0 0 -1.33333 589.479 586.227)"/><path d="M0 0c-24.229 45.228-75.762 71.801-128.844 61.989a122 122 0 0 1-18.034-4.789" style="fill:none;stroke:#fff;stroke-width:30;stroke-linecap:round;stroke-linejoin:round;stroke-miterlimit:10;stroke-dasharray:none;stroke-opacity:1" transform="matrix(1.33333 0 0 -1.33333 566.319 509.22)"/><path d="M0 0c-13.085 18.922-24.248 39.812-33.24 62.206" style="fill:none;stroke:#fff;stroke-width:30;stroke-linecap:round;stroke-linejoin:round;stroke-miterlimit:10;stroke-dasharray:none;stroke-opacity:1" transform="matrix(1.33333 0 0 -1.33333 573.855 744.572)"/><path d="M0 0c-21.656 40.905-37.428 86.209-46.28 134.095-6.081 32.897 15.66 64.497 48.552 70.574 32.896 6.081 64.492-15.657 70.574-48.552a374 374 0 0 1 2.068-10.289" style="fill:none;stroke:#fff;stroke-width:30;stroke-linecap:round;stroke-linejoin:round;stroke-miterlimit:10;stroke-dasharray:none;stroke-opacity:1" transform="matrix(1.33333 0 0 -1.33333 406.172 778.88)"/><path d="M0 0c16.557-22.761 35.203-43.522 55.732-61.811 14.504-12.922 29.64-24.334 45.316-34.233" style="fill:none;stroke:#fff;stroke-width:30;stroke-linecap:round;stroke-linejoin:round;stroke-miterlimit:10;stroke-dasharray:none;stroke-opacity:1" transform="matrix(1.33333 0 0 -1.33333 448.82 847.354)"/><path d="M0 0c.994-.915 1.985-1.834 2.992-2.731C16.447-14.718 30.517-24.588 44.93-32.272" style="fill:none;stroke:#fff;stroke-width:30;stroke-linecap:round;stroke-linejoin:round;stroke-miterlimit:10;stroke-dasharray:none;stroke-opacity:1" transform="matrix(1.33333 0 0 -1.33333 626.585 805.52)"/><path d="M0 0c21.272-40.878 48.817-75.812 80.327-102.769" style="fill:none;stroke:#fff;stroke-width:30;stroke-linecap:round;stroke-linejoin:round;stroke-miterlimit:10;stroke-dasharray:none;stroke-opacity:1" transform="matrix(1.33333 0 0 -1.33333 475.816 737.72)"/><path d="M0 0a419 419 0 0 1 15.25-58.56" style="fill:none;stroke:#fff;stroke-width:30;stroke-linecap:round;stroke-linejoin:round;stroke-miterlimit:10;stroke-dasharray:none;stroke-opacity:1" transform="matrix(1.33333 0 0 -1.33333 423.883 585.405)"/></svg>