<svg xmlns="http://www.w3.org/2000/svg" viewBox="0 0 492 397.8"><path d="M468.5 245.8c-6.2 0-12.2 2.3-16.6 6.7-3 2.9-5.1 6.5-6.1 10.5H270v-10h50.9c13.2 0 23.8-10.8 23.9-24 0-6.6 5.3-11.9 11.9-12h33c3.3 12.6 16.1 20.1 28.7 16.8s20.1-16.1 16.8-28.7-16.1-20.1-28.7-16.8c-4 1.1-7.7 3.2-10.7 6.1s-5.1 6.6-6.1 10.6h-33c-13.2 0-23.8 10.8-23.9 24 0 6.6-5.3 11.9-11.9 12H270v-12h25c11.9 0 22.5-7.5 26.7-18.7l11.6-31.5c2.4-6.5 8.5-10.8 15.5-10.9h3c.8 4.8 3.1 9.3 6.5 12.7 9.2 9.2 24.1 9.1 33.2 0 9.2-9.2 9.1-24.1 0-33.2-9.2-9.2-24-9.2-33.2 0-2.4 2.4-4.3 5.3-5.5 8.5h-4c-11.9 0-22.6 7.5-26.7 18.7l-11.6 31.5c-2.4 6.5-8.5 10.8-15.4 10.9h-25v-22.3c0-19.1-15.5-34.7-34.6-34.7h-1.4V66.6C233.9 29.8 204 0 167.2 0h-64.3C66.2 0 36 29.9 36 66.6V160h-.8c-19.3-.2-35 15.2-35.2 34.4v161.1c0 19.5 15.7 35.3 35.2 35.4H235c19.4 0 35-16 35-35.4v-33.6h25c6.9 0 13 4.2 15.5 10.6l11.6 31.1c4.2 11.1 14.9 18.4 26.7 18.3h4c1 3.4 2.9 6.5 5.5 8.9 9.1 9.2 23.9 9.3 33.2.2 9.2-9.1 9.3-23.9.2-33.2-4.4-4.5-10.4-7-16.7-7-6.2-.1-12.2 2.3-16.6 6.7-3.3 3.4-5.6 7.7-6.6 12.4h-3c-6.8 0-13-4.1-15.5-10.5l-11.6-31.1c-4.2-11.1-14.8-18.4-26.7-18.4h-25v-12h50.9c6.6 0 11.9 5.4 11.9 12 0 13.2 10.7 23.9 23.9 24h33c1.1 4 3.2 7.6 6.1 10.4 9.3 9.2 24.2 9.1 33.4-.2s9.1-24.2-.2-33.4c-4.4-4.3-10.3-6.8-16.5-6.8-6.3 0-12.3 2.6-16.6 7.1-3 3-5.1 6.8-6.1 10.9h-33c-6.6 0-11.9-5.4-11.9-12 0-13.2-10.7-23.9-23.9-24h-50.9v-11h175.8c3.2 12.6 15.9 20.2 28.5 17s20.2-15.9 17-28.5c-2.6-10.4-12-17.8-22.8-17.7ZM404.3 203c4.5-4.5 11.8-4.5 16.3 0s4.5 11.8 0 16.3-11.8 4.5-16.3 0c-2.2-2.2-3.4-5.1-3.4-8.1 0-3.1 1.2-6 3.4-8.1Zm-37.5-47c4.5-4.5 11.8-4.5 16.3 0s4.5 11.8 0 16.3-11.8 4.5-16.3 0c-2.2-2.2-3.4-5.1-3.4-8.2s1.2-6 3.4-8.2ZM175 12.5c26 3.7 47 26.5 47 54.1V160h-16V71.2c.1-19.2-12.5-36.2-31-41.5zm-68-.5h56v16h-56zm1.4 28h54.8c17.1 0 30.9 14 30.8 31.1v88.8H77V71.1c.1-17.2 14.1-31.1 31.4-31.2ZM48 66.6C48 39 69 16.2 95 12.5V30c-17.8 5.9-29.9 22.4-30 41.1v88.8H48V66.5Zm210 289.2c0 12.8-10.4 23.2-23.2 23.2H35.2C22.4 379 12 368.6 12 355.8V195.1c0-12.8 10.4-23.1 23.2-23.1h199.7c12.8 0 23.1 10.4 23.1 23.2v160.7Zm108.8 10.5c4.5-4.5 11.8-4.5 16.3 0s4.5 11.8 0 16.3-11.8 4.5-16.3 0c-2.2-2.2-3.4-5.1-3.4-8.2s1.2-6 3.4-8.1m37.5-46.9c4.5-4.5 11.8-4.5 16.3 0s4.5 11.8 0 16.3-11.8 4.5-16.3 0c-2.2-2.2-3.4-5.1-3.4-8.2s1.2-6 3.4-8.1m72.3-41.9c-4.5 4.5-11.8 4.5-16.3 0s-4.5-11.8 0-16.3 11.8-4.5 16.3 0c4.5 4.4 4.6 11.7.1 16.2z"/><path d="M176 229H95c-3.3 0-6 2.7-6 6v81c0 3.3 2.7 6 6 6h81c3.3 0 6-2.7 6-6v-81c0-3.3-2.7-6-6-6m-6 81h-69v-69h69z"/><path d="M115 302h41c3.3 0 6-2.7 6-6v-41c0-3.3-2.7-6-6-6h-41c-3.3 0-6 2.7-6 6v41c0 3.3 2.7 6 6 6m6-41h29v29h-29z"/><path d="M220.4 249c3.3 0 6-2.7 6-6s-2.7-6-6-6H202v-3c.1-14.2-11.3-25.9-25.5-26h-2.4v-18c0-3.3-2.7-6-6-6s-6 2.7-6 6v18h-21v-18c0-3.3-2.7-6-6-6s-6 2.7-6 6v18h-20v-18c0-3.3-2.7-6-6-6s-6 2.7-6 6v18h-3.2c-14.3 0-25.9 11.7-25.8 26v3H49.9c-3.3 0-6 2.7-6 6s2.7 6 6 6h18.2v20H49.9c-3.3 0-6 2.7-6 6s2.7 6 6 6h18.2v21H49.9c-3.3 0-6 2.7-6 6s2.7 6 6 6h18.2v2.6c0 14.3 11.5 26.4 25.8 26.4h3.2v17.6c0 3.3 2.7 6 6 6s6-2.7 6-6V343h20v17.6c0 3.3 2.7 6 6 6s6-2.7 6-6V343h21v17.6c0 3.3 2.7 6 6 6s6-2.7 6-6V343h10.1c10.1 0 17.9-8.6 17.9-18.7V314h18.4c3.3 0 6-2.7 6-6s-2.7-6-6-6h-18.4v-21h18.4c3.3 0 6-2.7 6-6s-2.7-6-6-6h-18.4v-20h18.4ZM190 324.3c0 3.4-2.5 6.7-5.9 6.7H93.8c-7.7 0-13.8-6.7-13.8-14.4v-82.5c0-7.7 6.1-14 13.8-14h82.5c7.6 0 13.7 6.3 13.7 13.9v90.5ZM29 189.9c-3.3 0-6 2.7-6 6v4.2c0 3.3 2.7 6 6 6s6-2.7 6-6v-4.2c0-3.3-2.7-6-6-6M29 214.6c-3.3 0-6 2.7-6 6v48.9c0 3.3 2.7 6 6 6s6-2.7 6-6v-48.9c0-3.3-2.7-6-6-6"/></svg>