<?xml version="1.0" encoding="UTF-8"?><svg id="Layer_1" xmlns="http://www.w3.org/2000/svg" viewBox="0 0 415.1 110.2"><g id="text_1"><g style="opacity:.3;"><path id="Blakely-Light-42" d="M63.9,83.6c3.9-8,4.3-17.4,1.1-25.9,7.2-2.9,13.2-8.5,16.6-15.5,7.3-15,2-33.3-12.4-42L21.2,98.9c16.1,7.3,35,.6,42.8-15.3ZM57.9,80.7c-4.9,10.1-16.1,15.8-27.2,14L71.6,10.9c7,7.7,8.4,19.1,3.9,28.3-3.9,8-11.7,13.4-20.5,14.3,6,7.6,7.2,18.3,2.9,27.1Z" style="fill:#4ade80; stroke:#000; stroke-miterlimit:10; stroke-width:.2px;"/></g></g><g id="text_2"><g style="opacity:.3;"><path id="Blakely-Light-421" d="M83.5,67c-3.8-8-10.9-14.2-19.5-17,2.2-7.4,1.6-15.6-1.8-22.7-7.2-15.1-24.8-22.3-40.6-16.5l47.2,99.2c15.8-8,22.3-27,14.7-43ZM77.4,69.9c4.8,10.2,2.4,22.4-6,30L31.4,15.7c10.4-.6,20.2,5.3,24.6,14.6,3.8,8,3.1,17.5-1.6,25,9.7,0,18.8,5.8,23,14.6h0Z" style="fill:#fb923c; stroke:#000; stroke-miterlimit:10; stroke-width:.2px;"/></g></g><g id="text_3"><g style="opacity:.3;"><path id="Blakely-Light-422" d="M82.7,41.4c-8.7-2-17.9-.3-25.5,4.7-4.5-6.3-11.3-11-18.9-12.8C22.1,29.6,5.5,38.8.2,54.8l107,25c3.5-17.3-7.2-34.3-24.5-38.3h0ZM81.2,48c11,2.6,19,12.1,19.7,23.4L10.1,50.2c6-8.5,16.7-12.4,26.8-10.1,8.7,2,15.7,8.5,18.5,16.8,6.1-7.6,16.2-11.1,25.8-8.9Z" style="fill:#f87171; stroke:#000; stroke-miterlimit:10; stroke-width:.2px;"/></g></g><g id="text_4"><g style="opacity:.3;"><path id="Blakely-Light-423" d="M62.2,26.1c-7,5.5-11.4,13.8-12.2,22.8-7.7-.5-15.6,2-21.7,6.8-13.1,10.4-16.2,29.1-7.1,43.2L107.4,30.9c-11.3-13.6-31.3-15.7-45.2-4.8ZM66.4,31.4c8.8-7,21.3-7.3,30.6-.9L23.7,88.3c-2.9-10,.7-20.8,8.8-27.2,7-5.5,16.4-7,24.7-4-2.1-9.5,1.4-19.6,9.1-25.7h0Z" style="fill:#60a5fa; stroke:#000; stroke-miterlimit:10; stroke-width:.2px;"/></g></g><g id="text_5"><g style="opacity:.3;"><path id="Blakely-Light-424" d="M37.4,32.5c0,8.9,3.7,17.5,10.2,23.8-5.2,5.8-8.2,13.4-8.2,21.2,0,16.7,12.7,30.8,29.4,32.5L69.3.2c-17.7.4-31.8,14.7-31.9,32.4h0ZM44.2,32.6c0-11.3,7.6-21.2,18.4-24.4l-.5,93.3c-9.6-4-15.9-13.5-15.8-23.8,0-8.9,4.8-17.2,12.3-21.8-8.7-4.3-14.5-13.4-14.4-23.2h0Z" style="fill:#4ade80; stroke:#000; stroke-miterlimit:10; stroke-width:.2px;"/></g></g><g id="text_6"><g style="opacity:.3;"><path id="Blakely-Light-425" d="M27,55.9c6.9,5.6,16,8,25,6.8,1.3,7.6,5.4,14.8,11.5,19.7,13,10.5,32,9.3,43.7-2.7L21.6,10.8c-10.7,14.1-8.4,34,5.4,45.1ZM31.2,50.7c-8.8-7.1-11.9-19.2-7.6-29.6l72.6,58.5c-9.1,5.1-20.5,4-28.5-2.5-6.9-5.6-10.4-14.4-9.4-23.2-8.8,4.2-19.5,3-27.1-3.2h0Z" style="fill:#fb923c; stroke:#000; stroke-miterlimit:10; stroke-width:.2px;"/></g></g><g id="text_7"><g style="opacity:.3;"><path id="Blakely-Light-426" d="M38.8,78.7c8.7-1.9,16.2-7.5,20.9-15.2,6.8,3.8,14.9,5,22.5,3.3,16.3-3.6,27.3-19.2,25.1-35.9L.2,54.8c4.3,17.1,21.4,27.7,38.6,23.9h0ZM37.3,72.1c-11,2.4-22.4-2.7-27.9-12.5l91-20.3c-1.7,10.3-9.7,18.5-19.7,20.7-8.7,1.9-17.8-.8-24-7.1-2.2,9.5-9.8,17.1-19.4,19.2Z" style="fill:#f87171; stroke:#000; stroke-miterlimit:10; stroke-width:.2px;"/></g></g><path d="M144.9,73.6v14.8h-2.4v-14.8h-5.2v-2h12.8l-.3,2h-5Z" style="stroke:#000; stroke-linejoin:bevel; stroke-width:.5px;"/><path d="M165.7,73.5v5.4h6.2v1.9h-6.2v5.7h7.5v1.9h-10v-16.8h9.8l-.3,1.9h-7.1,0Z" style="stroke:#000; stroke-linejoin:bevel; stroke-width:.5px;"/><path d="M192.5,71.3c1.1,0,2.1.1,2.8.4.8.3,1.5.7,2.1,1.2l-1.3,1.5c-.5-.4-1.1-.7-1.7-.9-.6-.2-1.2-.3-1.8-.3s-1.7.2-2.5.6-1.4,1.1-1.8,2.1c-.5,1-.7,2.3-.7,4s.2,2.9.7,3.9,1,1.7,1.8,2.1c.7.4,1.6.7,2.5.7s1.7-.1,2.3-.4c.6-.3,1.1-.6,1.6-1l1.2,1.5c-.5.5-1.2,1-2.1,1.3-.8.4-1.9.6-3.1.6s-2.6-.3-3.8-1c-1.1-.7-2-1.6-2.6-2.9s-1-2.9-1-4.8.3-3.5,1-4.8c.7-1.3,1.5-2.3,2.7-2.9,1.1-.7,2.3-1,3.7-1h0Z" style="stroke:#000; stroke-linejoin:bevel; stroke-width:.5px;"/><path d="M218.6,88.4v-7.8h-6v7.8h-2.4v-16.8h2.4v7h6v-7h2.4v16.8h-2.4Z" style="stroke:#000; stroke-linejoin:bevel; stroke-width:.5px;"/><path d="M242.2,88.4l-5.7-14.6c0,.3,0,.8.1,1.5s.1,1.5.2,2.4c0,.9,0,1.8,0,2.7v8.1h-2.2v-16.8h3.2l5.7,14.6c0-.3,0-.7-.1-1.4,0-.6-.1-1.4-.2-2.3,0-.9,0-1.8,0-2.8v-8.1h2.2v16.8h-3.3Z" style="stroke:#000; stroke-linejoin:bevel; stroke-width:.5px;"/><path d="M271,80c0,1.7-.2,3.2-.7,4.5s-1.2,2.3-2.1,3.1c-.9.7-2.1,1.1-3.5,1.1s-2.5-.4-3.5-1.1-1.6-1.7-2.1-3c-.5-1.3-.7-2.8-.7-4.6s.2-3.2.7-4.5c.5-1.3,1.2-2.3,2.1-3.1.9-.7,2.1-1.1,3.5-1.1s2.5.4,3.5,1.1,1.6,1.7,2.1,3c.5,1.3.7,2.8.7,4.6ZM268.5,80c0-2.2-.3-3.9-.9-5-.6-1.1-1.5-1.7-2.9-1.7s-2.3.6-2.9,1.7-.9,2.8-.9,5,.3,3.9.9,5,1.5,1.7,2.9,1.7,2.3-.6,2.9-1.7c.6-1.1.9-2.8.9-5h0Z" style="stroke:#000; stroke-linejoin:bevel; stroke-width:.5px;"/><path d="M284.6,88.4v-16.8h2.4v14.7h7.6l-.3,2.1h-9.8,0Z" style="stroke:#000; stroke-linejoin:bevel; stroke-width:.5px;"/><path d="M318.9,80c0,1.7-.2,3.2-.7,4.5s-1.2,2.3-2.1,3.1c-.9.7-2.1,1.1-3.5,1.1s-2.5-.4-3.5-1.1-1.6-1.7-2.1-3c-.5-1.3-.7-2.8-.7-4.6s.2-3.2.7-4.5c.5-1.3,1.2-2.3,2.1-3.1.9-.7,2.1-1.1,3.5-1.1s2.5.4,3.5,1.1,1.6,1.7,2.1,3c.5,1.3.7,2.8.7,4.6ZM316.4,80c0-2.2-.3-3.9-.9-5-.6-1.1-1.5-1.7-2.9-1.7s-2.3.6-2.9,1.7-.9,2.8-.9,5,.3,3.9.9,5,1.5,1.7,2.9,1.7,2.3-.6,2.9-1.7c.6-1.1.9-2.8.9-5h0Z" style="stroke:#000; stroke-linejoin:bevel; stroke-width:.5px;"/><path d="M337.8,88.7c-2.1,0-3.7-.7-4.9-2.2-1.2-1.5-1.8-3.6-1.8-6.5s.2-2.7.6-3.8c.4-1.1.9-2,1.6-2.7.7-.7,1.4-1.3,2.3-1.6.9-.4,1.8-.5,2.7-.5s2,.2,2.8.5c.7.3,1.4.8,2.1,1.4l-1.4,1.5c-1-.9-2.1-1.4-3.4-1.4s-1.5.2-2.3.6c-.7.4-1.3,1.1-1.7,2.1-.4,1-.7,2.3-.7,4,0,2.4.4,4.1,1.1,5.2s1.8,1.6,3.2,1.6,2.1-.3,3-.8v-4.9h-3.1l-.3-1.9h5.8v8.1c-.8.4-1.6.8-2.5,1.1s-1.9.4-3.1.4h0Z" style="stroke:#000; stroke-linejoin:bevel; stroke-width:.5px;"/><path d="M366.2,71.6v1.9h-3.7v13h3.7v1.9h-9.8v-1.9h3.7v-13h-3.7v-1.9h9.8Z" style="stroke:#000; stroke-linejoin:bevel; stroke-width:.5px;"/><path d="M382.4,73.5v5.4h6.2v1.9h-6.2v5.7h7.5v1.9h-10v-16.8h9.8l-.3,1.9h-7.1Z" style="stroke:#000; stroke-linejoin:bevel; stroke-width:.5px;"/><path d="M414.7,83.7c0,1-.2,1.8-.7,2.6-.5.8-1.2,1.3-2.1,1.8s-2.1.6-3.4.6-2.4-.2-3.4-.6c-1-.4-1.9-.9-2.6-1.6l1.4-1.5c.6.5,1.3,1,2,1.3.8.3,1.6.5,2.6.5s1.3-.1,1.8-.3c.6-.2,1-.5,1.4-1,.3-.4.5-1,.5-1.6s-.1-1-.3-1.3-.6-.7-1.1-1c-.5-.3-1.2-.6-2.2-.8-1.1-.3-2.1-.7-2.9-1.1s-1.4-.9-1.9-1.5-.6-1.4-.6-2.2.2-1.6.7-2.3c.5-.7,1.1-1.2,2-1.6s1.8-.6,2.9-.6,2.2.2,3.1.5c.9.3,1.7.8,2.4,1.5l-1.3,1.5c-.6-.5-1.2-.9-1.9-1.2-.7-.2-1.4-.4-2.1-.4s-1.7.2-2.3.6c-.6.4-.9,1-.9,1.8s.1.9.4,1.2.7.6,1.3.9,1.4.6,2.5.9c.9.3,1.7.6,2.5,1,.7.4,1.3.9,1.8,1.6s.7,1.5.7,2.6h0Z" style="stroke:#000; stroke-linejoin:bevel; stroke-width:.5px;"/><path d="M166,49c0,2.3-.5,4.3-1.4,5.9-.9,1.6-2.2,2.8-3.7,3.7-1.6.9-3.3,1.6-5.2,2-1.9.4-3.9.6-5.9.6h-11.9V18.6h11c1.9,0,3.8.2,5.6.5,1.8.3,3.5.9,4.9,1.7,1.5.8,2.6,1.9,3.5,3.3s1.3,3.1,1.3,5.2-.4,3.3-1.1,4.6c-.8,1.3-1.7,2.3-2.9,3.1s-2.5,1.3-3.8,1.6c1.5.3,3.1.8,4.6,1.5s2.7,1.8,3.7,3.2c1,1.4,1.5,3.3,1.5,5.7h0ZM157.9,29.8c0-2.3-.7-4-2.1-4.9-1.4-1-3.4-1.5-5.9-1.5h-5.8v13.2h6.3c2.5,0,4.3-.5,5.6-1.6,1.3-1.1,1.9-2.8,1.9-5.2h0ZM159.6,49.1c0-2-.4-3.6-1.2-4.7-.8-1.1-1.9-1.9-3.2-2.3-1.3-.4-2.8-.6-4.4-.6h-6.8v14.9h6.5c1.4,0,2.8-.2,4.2-.5s2.6-1.1,3.5-2.1c.9-1,1.4-2.6,1.4-4.6h0Z" style="stroke:#000; stroke-linejoin:bevel; stroke-width:2px;"/><path d="M200.4,30.7c0,3.2-1,5.8-2.9,7.7-1.9,1.9-4.3,3.3-7.2,4l12.4,18.8h-7.3l-11.2-18h-5.3v18h-6.2V18.6h11.3c5.3,0,9.4,1,12.1,3,2.8,2,4.1,5,4.1,9h0ZM193.9,30.7c0-2.6-.8-4.5-2.3-5.7s-3.8-1.7-7-1.7h-5.7v15.3h5.8c2.9,0,5.2-.6,6.8-1.8,1.6-1.2,2.4-3.2,2.4-6.1h0Z" style="stroke:#000; stroke-linejoin:bevel; stroke-width:2px;"/><path d="M231.2,50.6h-16.1l-3.2,10.6h-6.2l13.7-42.6h7.7l13.8,42.6h-6.5l-3.2-10.6h0ZM216.5,45.7h13.3l-6.6-22.1-6.7,22.1Z" style="stroke:#000; stroke-linejoin:bevel; stroke-width:2px;"/><path d="M275,39.7c0,4.4-.6,8.1-1.7,10.9-1.2,2.8-2.7,5-4.6,6.5s-4,2.6-6.3,3.2-4.6.9-6.9.9h-10V18.6h9.4c2.5,0,5,.3,7.4.8,2.4.6,4.5,1.6,6.5,3.1,1.9,1.5,3.5,3.6,4.6,6.4,1.1,2.8,1.7,6.4,1.7,10.8h0ZM268.5,39.7c0-3.6-.4-6.4-1.1-8.6-.7-2.2-1.7-3.8-2.9-4.9-1.2-1.1-2.6-1.8-4-2.2s-2.9-.6-4.3-.6h-4.5v33h4.6c1.5,0,3-.2,4.5-.7,1.5-.5,2.8-1.3,4-2.5,1.2-1.2,2.1-2.9,2.8-5.1.7-2.2,1.1-5,1.1-8.4h0Z" style="stroke:#000; stroke-linejoin:bevel; stroke-width:2px;"/><path d="M288.9,23.4v14.3h16.4v4.8h-16.4v18.6h-6.1V18.6h25.6l-.7,4.8h-18.7Z" style="stroke:#000; stroke-linejoin:bevel; stroke-width:2px;"/><path d="M343.1,39.9c0,4.3-.6,8.2-1.8,11.5-1.2,3.3-3,5.9-5.3,7.8-2.4,1.9-5.3,2.8-8.8,2.8s-6.4-.9-8.8-2.7c-2.4-1.8-4.1-4.4-5.3-7.7-1.2-3.3-1.8-7.2-1.8-11.6s.6-8.2,1.8-11.5c1.2-3.3,3-5.9,5.3-7.8,2.4-1.9,5.3-2.8,8.8-2.8s6.4.9,8.8,2.8c2.4,1.8,4.1,4.4,5.3,7.7,1.2,3.3,1.8,7.2,1.8,11.6h0ZM336.7,39.9c0-5.6-.7-9.9-2.2-12.8s-3.9-4.4-7.3-4.4-5.8,1.5-7.3,4.4c-1.5,2.9-2.2,7.2-2.2,12.8s.8,9.8,2.3,12.7,3.9,4.3,7.2,4.3,5.8-1.4,7.3-4.3c1.5-2.9,2.2-7.1,2.2-12.7h0Z" style="stroke:#000; stroke-linejoin:bevel; stroke-width:2px;"/><path d="M377.5,30.7c0,3.2-1,5.8-2.9,7.7-1.9,1.9-4.3,3.3-7.2,4l12.4,18.8h-7.3l-11.2-18h-5.3v18h-6.2V18.6h11.3c5.3,0,9.4,1,12.1,3,2.8,2,4.1,5,4.1,9h0ZM371,30.7c0-2.6-.8-4.5-2.3-5.7s-3.8-1.7-7-1.7h-5.7v15.3h5.8c2.9,0,5.2-.6,6.8-1.8,1.6-1.2,2.4-3.2,2.4-6.1Z" style="stroke:#000; stroke-linejoin:bevel; stroke-width:2px;"/><path d="M414.1,39.7c0,4.4-.6,8.1-1.7,10.9-1.2,2.8-2.7,5-4.6,6.5s-4,2.6-6.3,3.2-4.6.9-6.9.9h-10V18.6h9.4c2.5,0,5,.3,7.4.8,2.4.6,4.5,1.6,6.5,3.1,1.9,1.5,3.5,3.6,4.6,6.4,1.1,2.8,1.7,6.4,1.7,10.8h0ZM407.6,39.7c0-3.6-.4-6.4-1.1-8.6-.7-2.2-1.7-3.8-2.9-4.9-1.2-1.1-2.6-1.8-4-2.2s-2.9-.6-4.3-.6h-4.5v33h4.6c1.5,0,3-.2,4.5-.7,1.5-.5,2.8-1.3,4-2.5,1.2-1.2,2.1-2.9,2.8-5.1.7-2.2,1.1-5,1.1-8.4h0Z" style="stroke:#000; stroke-linejoin:bevel; stroke-width:2px;"/></svg>