<?xml version="1.0" encoding="UTF-8"?>
<svg id="Layer_1" xmlns="http://www.w3.org/2000/svg" version="1.1" viewBox="0 0 107.9 110.2">
  <!-- Generator: Adobe Illustrator 30.2.1, SVG Export Plug-In . SVG Version: 2.1.1 Build 1)  -->
  <defs>
    <style>
      .st0 {
        fill: #60a5fa;
      }

      .st0, .st1, .st2, .st3 {
        stroke: #000;
        stroke-miterlimit: 10;
        stroke-width: .2px;
      }

      .st1 {
        fill: #f87171;
      }

      .st2 {
        fill: #fb923c;
      }

      .st4 {
        opacity: .3;
      }

      .st3 {
        fill: #4ade80;
      }
    </style>
  </defs>
  <g id="text_1">
    <g class="st4">
      <path id="Blakely-Light-42" class="st3" d="M63.9,83.6c3.9-8,4.3-17.4,1.1-25.9,7.2-2.9,13.2-8.5,16.6-15.5,7.3-15,2-33.3-12.4-42L21.2,98.9c16.1,7.3,35,.6,42.8-15.3ZM57.9,80.7c-4.9,10.1-16.1,15.8-27.2,14L71.6,10.9c7,7.7,8.4,19.1,3.9,28.3-3.9,8-11.7,13.4-20.5,14.3,6,7.6,7.2,18.3,2.9,27.1Z"/>
    </g>
  </g>
  <g id="text_2">
    <g class="st4">
      <path id="Blakely-Light-421" class="st2" d="M83.5,67c-3.8-8-10.9-14.2-19.5-17,2.2-7.4,1.6-15.6-1.8-22.7-7.2-15.1-24.8-22.3-40.6-16.5l47.2,99.2c15.8-8,22.3-27,14.7-43ZM77.4,69.9c4.8,10.2,2.4,22.4-6,30L31.4,15.7c10.4-.6,20.2,5.3,24.6,14.6,3.8,8,3.1,17.5-1.6,25,9.7,0,18.8,5.8,23,14.6h0Z"/>
    </g>
  </g>
  <g id="text_3">
    <g class="st4">
      <path id="Blakely-Light-422" class="st1" d="M82.7,41.4c-8.7-2-17.9-.3-25.5,4.7-4.5-6.3-11.3-11-18.9-12.8C22.1,29.6,5.5,38.8.2,54.8l107,25c3.5-17.3-7.2-34.3-24.5-38.3h0ZM81.2,48c11,2.6,19,12.1,19.7,23.4L10.1,50.2c6-8.5,16.7-12.4,26.8-10.1,8.7,2,15.7,8.5,18.5,16.8,6.1-7.6,16.2-11.1,25.8-8.9Z"/>
    </g>
  </g>
  <g id="text_4">
    <g class="st4">
      <path id="Blakely-Light-423" class="st0" d="M62.2,26.1c-7,5.5-11.4,13.8-12.2,22.8-7.7-.5-15.6,2-21.7,6.8-13.1,10.4-16.2,29.1-7.1,43.2L107.4,30.9c-11.3-13.6-31.3-15.7-45.2-4.8ZM66.4,31.4c8.8-7,21.3-7.3,30.6-.9L23.7,88.3c-2.9-10,.7-20.8,8.8-27.2,7-5.5,16.4-7,24.7-4-2.1-9.5,1.4-19.6,9.1-25.7h0Z"/>
    </g>
  </g>
  <g id="text_5">
    <g class="st4">
      <path id="Blakely-Light-424" class="st3" d="M37.4,32.5c0,8.9,3.7,17.5,10.2,23.8-5.2,5.8-8.2,13.4-8.2,21.2,0,16.7,12.7,30.8,29.4,32.5L69.3.2c-17.7.4-31.8,14.7-31.9,32.4h0ZM44.2,32.6c0-11.3,7.6-21.2,18.4-24.4l-.5,93.3c-9.6-4-15.9-13.5-15.8-23.8,0-8.9,4.8-17.2,12.3-21.8-8.7-4.3-14.5-13.4-14.4-23.2h0Z"/>
    </g>
  </g>
  <g id="text_6">
    <g class="st4">
      <path id="Blakely-Light-425" class="st2" d="M27,55.9c6.9,5.6,16,8,25,6.8,1.3,7.6,5.4,14.8,11.5,19.7,13,10.5,32,9.3,43.7-2.7L21.6,10.8c-10.7,14.1-8.4,34,5.4,45.1ZM31.2,50.7c-8.8-7.1-11.9-19.2-7.6-29.6l72.6,58.5c-9.1,5.1-20.5,4-28.5-2.5-6.9-5.6-10.4-14.4-9.4-23.2-8.8,4.2-19.5,3-27.1-3.2h0Z"/>
    </g>
  </g>
  <g id="text_7">
    <g class="st4">
      <path id="Blakely-Light-426" class="st1" d="M38.8,78.7c8.7-1.9,16.2-7.5,20.9-15.2,6.8,3.8,14.9,5,22.5,3.3,16.3-3.6,27.3-19.2,25.1-35.9L.2,54.8c4.3,17.1,21.4,27.7,38.6,23.9h0ZM37.3,72.1c-11,2.4-22.4-2.7-27.9-12.5l91-20.3c-1.7,10.3-9.7,18.5-19.7,20.7-8.7,1.9-17.8-.8-24-7.1-2.2,9.5-9.8,17.1-19.4,19.2Z"/>
    </g>
  </g>
</svg>