<svg fill="#fff" xmlns="http://www.w3.org/2000/svg" data-name="Layer 3" viewBox="0 0 1000 1000"><circle cx="343.75" cy="500" r="31.25" style="stroke-width:0"/><path d="M866.272 628.128c-8.545 0-16.785-4.684-20.904-12.817-5.875-11.551-1.267-25.65 10.269-31.51 55.313-28.091 89.676-84.152 89.676-146.301 0-39.413-14.176-77.469-39.902-107.147-25.497-29.389-60.745-48.798-99.258-54.688a23.42 23.42 0 0 1-19.486-18.799c-11.917-62.82-66.757-108.429-130.417-108.429-26.169 0-51.468 7.706-73.181 22.263a23.3 23.3 0 0 1-18.967 3.235 23.48 23.48 0 0 1-14.984-12.054C515.472 95.764 448.761 54.688 375 54.688c-107.696 0-195.312 87.616-195.312 195.312 0 2.99.274 5.707.518 8.438a23.4 23.4 0 0 1-15.579 24.292c-65.75 23.056-109.94 85.251-109.94 154.77 0 44.006 17.06 85.144 48.05 115.86 12.086 12.33 26.002 22.492 41.642 30.441 11.535 5.875 16.128 19.99 10.254 31.525-5.875 11.551-20.035 16.144-31.525 10.254-20.172-10.27-38.208-23.453-53.604-39.17C29.8 547.075 7.812 494.11 7.812 437.5c0-83.542 49.592-158.844 125.046-192.535C135.544 113.739 243.134 7.813 375 7.813c83.267 0 159.271 42.16 203.69 111.496 24.078-11.658 50.476-17.746 77.56-17.746 80.719 0 150.955 54.107 172.745 130.798 43.289 10.025 82.565 33.539 111.831 67.276 33.127 38.208 51.362 87.158 51.362 137.863 0 79.895-44.19 151.962-115.311 188.08a23.2 23.2 0 0 1-10.605 2.548Z" style="stroke-width:0"/><path d="M718.75 804.688h-437.5c-47.394 0-85.937-38.544-85.937-85.938v-62.5c0-47.394 38.543-85.937 85.937-85.937h437.5c47.394 0 85.938 38.543 85.938 85.937v62.5c0 47.394-38.544 85.938-85.938 85.938m-437.5-187.5c-21.545 0-39.062 17.517-39.062 39.062v62.5c0 21.545 17.517 39.063 39.062 39.063h437.5c21.545 0 39.063-17.518 39.063-39.063v-62.5c0-21.545-17.518-39.062-39.063-39.062z" style="stroke-width:0"/><path d="M718.75 617.188h-437.5c-47.394 0-85.937-38.544-85.937-85.938v-62.5c0-47.394 38.543-85.937 85.937-85.937h437.5c47.394 0 85.938 38.543 85.938 85.937v62.5c0 47.394-38.544 85.938-85.938 85.938m-437.5-187.5c-21.545 0-39.062 17.517-39.062 39.062v62.5c0 21.545 17.517 39.063 39.062 39.063h437.5c21.545 0 39.063-17.518 39.063-39.063v-62.5c0-21.545-17.518-39.062-39.063-39.062zM718.75 992.188h-437.5c-47.394 0-85.937-38.544-85.937-85.938v-62.5c0-47.394 38.543-85.937 85.937-85.937h437.5c47.394 0 85.938 38.543 85.938 85.937v62.5c0 47.394-38.544 85.938-85.938 85.938m-437.5-187.5c-21.545 0-39.062 17.517-39.062 39.062v62.5c0 21.545 17.517 39.063 39.062 39.063h437.5c21.545 0 39.063-17.518 39.063-39.063v-62.5c0-21.545-17.518-39.062-39.063-39.062z" style="stroke-width:0"/><circle cx="437.5" cy="500" r="31.25" style="stroke-width:0"/><path d="M658.905 523.438H531.25c-12.94 0-23.437-10.498-23.437-23.438s10.498-23.437 23.437-23.437h127.655c12.94 0 23.438 10.498 23.438 23.437s-10.498 23.438-23.438 23.438" style="stroke-width:0"/><circle cx="343.75" cy="687.5" r="31.25" style="stroke-width:0"/><circle cx="437.5" cy="687.5" r="31.25" style="stroke-width:0"/><path d="M658.905 710.938H531.25c-12.94 0-23.437-10.498-23.437-23.438s10.498-23.437 23.437-23.437h127.655c12.94 0 23.438 10.498 23.438 23.437s-10.498 23.438-23.438 23.438" style="stroke-width:0"/><circle cx="343.75" cy="875" r="31.25" style="stroke-width:0"/><circle cx="437.5" cy="875" r="31.25" style="stroke-width:0"/><path d="M658.905 898.438H531.25c-12.94 0-23.437-10.498-23.437-23.438s10.498-23.437 23.437-23.437h127.655c12.94 0 23.438 10.498 23.438 23.437s-10.498 23.438-23.438 23.438" style="stroke-width:0"/></svg>