<svg xmlns="http://www.w3.org/2000/svg" width="1519.947" height="1519.96" viewBox="0 0 1519.947 1519.96"><defs><clipPath id="a" clipPathUnits="userSpaceOnUse"><path d="M-570.099 1089.492H569.862V-50.482h-1139.96Z"/></clipPath></defs><path d="M0 0c-286.531 0-519.623 233.099-519.623 519.617 0 286.393 233.092 519.4 519.623 519.4 286.393 0 519.387-233.007 519.387-519.4C519.387 233.099 286.393 0 0 0m-.014 1089.492c-314.343 0-570.085-255.651-570.085-569.883 0-314.349 255.742-570.091 570.085-570.091 314.225 0 569.876 255.742 569.876 570.091 0 314.232-255.651 569.883-569.876 569.883" clip-path="url(#a)" style="fill:#000;fill-opacity:1;fill-rule:nonzero;stroke:none" transform="matrix(1.33333 0 0 -1.33333 760.132 1452.65)"/><path d="M0 0v.676h-233.474c-7.282 28.842-30.05 51.453-58.984 58.491v289.71c28.974 7.13 51.729 29.878 58.872 58.845h340.717c7.097-28.757 29.57-51.374 58.242-58.688V189.151l.4-.131 7.793 8.593c10.613 11.558 25.53 18.406 41.109 18.675V437.68c0 10.744-8.6 19.344-19.213 19.344h-518.009c-10.613 0-19.213-8.6-19.213-19.344v-467.1c0-10.613 8.6-19.213 19.213-19.213H25.254l-6.448 5.917C6.855-31.702 0-16.117 0 0" style="fill:#000;fill-opacity:1;fill-rule:nonzero;stroke:none" transform="matrix(1.33333 0 0 -1.33333 762.455 983.055)"/><path d="M0 0h-283.452c-13.539 0-24.519-10.981-24.519-24.52s10.98-24.519 24.519-24.519H0c13.539 0 24.52 10.98 24.52 24.519S13.539 0 0 0" style="fill:#000;fill-opacity:1;fill-rule:nonzero;stroke:none" transform="matrix(1.33333 0 0 -1.33333 866.674 530.323)"/><path d="M0 0h-283.452c-13.539 0-24.519-10.981-24.519-24.52s10.98-24.519 24.519-24.519H0c13.539 0 24.52 10.98 24.52 24.519S13.539 0 0 0" style="fill:#000;fill-opacity:1;fill-rule:nonzero;stroke:none" transform="matrix(1.33333 0 0 -1.33333 866.674 678.096)"/><path d="M0 0c0-13.572 11.013-24.585 24.585-24.585h227.433c-2.552 13.434-.131 27.537 6.855 39.495 2.014 3.496 4.434 6.717 6.986 9.675H24.585C11.013 24.585 0 13.565 0 0" style="fill:#000;fill-opacity:1;fill-rule:nonzero;stroke:none" transform="matrix(1.33333 0 0 -1.33333 455.984 858.563)"/><path d="m0 0-71.893-71.88a24.48 24.48 0 0 0-17.33-7.176 24.42 24.42 0 0 0-17.331 7.19l-35.71 35.71c-9.577 9.564-9.577 25.097 0 34.66 9.551 9.577 25.11 9.577 34.661 0l18.38-18.366 54.562 54.549c9.577 9.551 25.097 9.564 34.674-.013C9.577 25.097 9.577 9.577 0 0m95.868-20.302c3.87 3.542 3.87 9.636 0 13.172L68.39 18.019a8.94 8.94 0 0 0-2.486 9.275l11.223 35.52c1.581 4.999-1.463 10.279-6.586 11.414l-36.366 8.035a8.92 8.92 0 0 0-6.789 6.79l-8.042 36.366c-1.128 5.123-6.409 8.166-11.407 6.592l-35.52-11.223a8.93 8.93 0 0 0-9.275 2.486l-25.15 27.478c-3.535 3.863-9.635 3.863-13.171 0l-25.149-27.478a8.93 8.93 0 0 0-9.276-2.486l-35.52 11.223c-4.998 1.574-10.279-1.469-11.407-6.592l-8.042-36.366a8.92 8.92 0 0 0-6.789-6.79l-36.366-8.035c-5.123-1.135-8.167-6.415-6.586-11.414l11.223-35.52a8.94 8.94 0 0 0-2.486-9.275L-233.055-7.13c-3.87-3.536-3.87-9.63 0-13.172l27.478-25.149a8.94 8.94 0 0 0 2.486-9.275l-11.223-35.514c-1.581-4.998 1.463-10.279 6.586-11.407l36.366-8.042a8.92 8.92 0 0 0 6.789-6.789l8.042-36.373c1.128-5.116 6.409-8.166 11.407-6.586l35.52 11.224a8.93 8.93 0 0 0 9.276-2.486l25.149-27.478c3.536-3.87 9.636-3.87 13.171 0l25.15 27.478a8.93 8.93 0 0 0 9.275 2.486l35.52-11.224c4.998-1.58 10.279 1.47 11.407 6.586l8.042 36.373a8.92 8.92 0 0 0 6.789 6.789l36.366 8.042c5.117 1.128 8.167 6.409 6.586 11.407L65.904-54.726a8.94 8.94 0 0 0 2.486 9.275z" style="fill:#000;fill-opacity:1;fill-rule:nonzero;stroke:none" transform="matrix(1.33333 0 0 -1.33333 1142.385 964.723)"/></svg>