<svg fill="#fff" xmlns="http://www.w3.org/2000/svg" viewBox="0 0 56 56"><path d="M56 17h-3c-.5 0-1-.5-1-1s.5-1 1-1h2.7C54.5 7.8 49 2.1 42 .5V5c0 .5-.5 1-1 1s-1-.5-1-1V0h-2c-9.9 0-18 8.1-18 18s.3 3.5.8 5.2c.1.3 0 .7-.3 1l-6.3 6.3.8 3.3c.1.3 0 .7-.3 1-.3.2-.6.3-1 .2l-3.1-.9-1.2 1.2.6 4.6c0 .3-.1.6-.3.8l-2.5 2.5c-.4.4-1 .4-1.4 0L3.6 41 0 44.7V56h11.3l2.3-2.3-.6-3.6c0-.3.1-.7.3-.9.3-.2.6-.3.9-.2l3.3.8 2.5-2.5-1-3c-.1-.4 0-.8.2-1l3-3q.3-.3.9-.3l3.6.5 5-5c.3-.3.6-.4 1-.3 1.7.5 3.4.8 5.2.8 9.9 0 18-8.1 18-18 .1-.3.1-.7.1-1M45 7c2.8 0 5 2.2 5 5s-2.2 5-5 5-2-.3-2.8-.8l-2.5 2.5c-.2.2-.4.3-.7.3s-.5-.1-.7-.3c-.4-.4-.4-1 0-1.4l2.5-2.5C40.3 14 40 13 40 12c0-2.8 2.2-5 5-5M23.3 24.3l4.7-4.7v-3.8c-1.2-.4-2-1.5-2-2.8s1.3-3 3-3 3 1.3 3 3-.8 2.4-2 2.8v2.6l2.8-.6 2.2-2.2v-4.8c-1.2-.4-2-1.5-2-2.8s1.3-3 3-3 3 1.3 3 3-.8 2.4-2 2.8V16c0 .3 0 .5-.3.7L34 19.4c0 .1-.3.2-.5.3l-3.5.7-.3.3-5 5c-.2.2-.4.3-.7.3s-.5-.1-.7-.3c-.4-.4-.4-1 0-1.4m-6 6 3-3c.4-.4 1-.4 1.4 0s.4 1 0 1.4l-3 3c-.2.2-.4.3-.7.3s-.5 0-.7-.3c-.4-.4-.4-1 0-1.4M41 30c-1.3 0-2.4-.8-2.8-2h-2.8l-8.7 8.7c-.2.2-.4.3-.7.3s-.5 0-.7-.3c-.4-.4-.4-1 0-1.4l9-9c.2-.2.4-.3.7-.3h3.2c.4-1.2 1.5-2 2.8-2s3 1.3 3 3-1.3 3-3 3m8-6c-1.3 0-2.4-.8-2.8-2h-3.1l-9.6 1.9L4.7 52.7c-.2.2-.4.3-.7.3s-.5 0-.7-.3c-.4-.4-.4-1 0-1.4l29-29c0-.1.3-.2.5-.3l10-2h3.4c.4-1.2 1.5-2 2.8-2s3 1.3 3 3-1.3 3-3 3"/></svg>