<svg xmlns="http://www.w3.org/2000/svg" width="4349.387" height="4349.387" viewBox="0 0 4349.387 4349.387"><path d="M0 0c0-891.124-722.398-1613.522-1613.522-1613.522S-3227.044-891.124-3227.044 0s722.398 1613.522 1613.522 1613.522S0 891.124 0 0Z" style="fill:none;stroke:#fff;stroke-width:35;stroke-linecap:butt;stroke-linejoin:miter;stroke-miterlimit:10;stroke-dasharray:32.92,32.92;stroke-dashoffset:0;stroke-opacity:1" transform="matrix(1.33333 0 0 -1.33333 4326.058 2174.691)"/><path d="M0 0c-8.099 12.958-14.578 27.536-21.057 42.113l-589.581-294.79c8.099-13.768 15.388-27.536 21.057-42.113z" style="fill:#fff;fill-opacity:1;fill-rule:nonzero;stroke:none" transform="matrix(1.33333 0 0 -1.33333 1872.346 942.617)"/><path d="m0 0 589.581-294.791c6.479 15.388 12.958 29.156 21.057 42.113L21.057 42.113C15.387 27.536 8.099 13.768 0 0" style="fill:#fff;fill-opacity:1;fill-rule:nonzero;stroke:none" transform="matrix(1.33333 0 0 -1.33333 1058.163 3069.861)"/><path d="m0 0-373.348-560.021-276.163 138.082c-5.669-14.578-12.958-28.345-21.057-42.113l270.9-135.45L-542-813l-187.688 281.729c-12.958-9.718-25.916-18.627-39.683-26.725l198.687-298.031-198.687-298.03c13.767-7.288 26.725-16.197 39.683-26.725L-542-899.053l142.332-213.498-270.9-135.45c8.099-13.768 15.388-27.535 21.057-42.113l276.163 138.082L0-1712.053c12.148 9.718 25.916 18.627 39.683 25.916l-370.115 555.563L-59.93-995.323c-8.099 12.958-14.578 27.535-21.057 42.113l-275.752-137.877-156.597 235.06 156.597 235.06 275.752-137.876c6.479 15.388 12.958 29.155 21.057 42.113l-270.502 135.251L39.683-25.916C25.916-18.627 12.148-9.718 0 0" style="fill:#fff;fill-opacity:1;fill-rule:nonzero;stroke:none" transform="matrix(1.33333 0 0 -1.33333 1952.253 1033.322)"/><path d="m0 0-589.581 294.791c-5.669-14.578-12.148-29.156-21.056-42.114l589.581-294.79C-14.577-27.535-8.098-13.768 0 0" style="fill:#fff;fill-opacity:1;fill-rule:nonzero;stroke:none" transform="matrix(1.33333 0 0 -1.33333 3290.148 1279.52)"/><path d="M0 0c-13.768 8.099-27.536 17.007-39.684 26.725l-187.685-281.732-142.537 213.805L-99.614 93.944c-8.098 13.768-14.577 27.536-21.056 42.113L-396.227-1.721l-373.144 559.717c-12.958-9.718-25.916-18.626-39.684-25.915l369.913-555.26-271.109-135.555c8.908-12.957 15.387-26.725 21.056-42.112l276.36 138.18 156.802-235.368-156.998-235.667-276.164 138.487c-5.669-14.577-12.148-29.155-21.056-42.113l271.304-135.247-370.108-555.567c13.768-7.289 26.726-16.198 39.684-25.916l372.537 559.616 276.164-137.676c6.479 14.577 12.958 28.345 21.056 42.112l-270.494 135.248 142.654 213.825 187.77-281.854C-27.536-612.258-13.768-603.349 0-596.06l-198.759 298.138z" style="fill:#fff;fill-opacity:1;fill-rule:nonzero;stroke:none" transform="matrix(1.33333 0 0 -1.33333 3422.967 1777.318)"/><path d="M0 0c8.908-12.958 15.387-26.725 21.056-42.113l589.581 294.791c-8.098 13.767-14.577 27.535-21.056 42.113z" style="fill:#fff;fill-opacity:1;fill-rule:nonzero;stroke:none" transform="matrix(1.33333 0 0 -1.33333 2475.965 3406.765)"/><path d="M0 0c-120.67 0-218.663-97.184-218.663-217.854 0-120.669 97.993-218.663 218.663-218.663s218.663 97.994 218.663 218.663S120.67 0 0 0m1063.352 532.081c-120.67 0-218.664-97.994-218.664-218.664s97.994-218.663 218.664-218.663 218.663 97.994 218.663 218.663-97.993 218.664-218.663 218.664m1063.352-1595.433c-120.67 0-218.664-97.184-218.664-217.853s97.994-218.664 218.664-218.664 218.663 97.994 218.663 218.664-97.994 217.853-218.663 217.853m0 1063.352c-120.67 0-218.664-97.184-218.664-217.854 0-120.669 97.994-218.663 218.664-218.663s218.663 97.994 218.663 218.663S2247.373 0 2126.704 0M1063.352-1594.623c-120.67 0-218.664-97.994-218.664-218.663s97.994-218.664 218.664-218.664 218.663 97.994 218.663 218.664-97.993 218.663-218.663 218.663M0-1063.352c-120.67 0-218.663-97.184-218.663-217.853S-120.67-1499.869 0-1499.869s218.663 97.994 218.663 218.664S120.67-1063.352 0-1063.352m1063.352 532.081c-120.67 0-218.664-97.994-218.664-218.663s97.994-218.664 218.664-218.664 218.663 97.994 218.663 218.664-97.993 218.663-218.663 218.663" style="fill:#fff;fill-opacity:1;fill-rule:evenodd;stroke:none" transform="matrix(1.33333 0 0 -1.33333 756.893 1174.778)"/></svg>